Coordinates
version=1
nRows=10
nColumns=22
inDegrees=yes

Units are S.I. units (second, meters, Newtons, ...)
If the header above contains a line with 'inDegrees', this indicates whether rotational values are in degrees (yes) or radians (no).

endheader
time	pelvis_tilt	pelvis_list	pelvis_rotation	pelvis_tx	pelvis_ty	pelvis_tz	hip_flexion_r	hip_adduction_r	hip_rotation_r	knee_angle_r	ankle_angle_r	subtalar_angle_r	hip_flexion_l	hip_adduction_l	hip_rotation_l	knee_angle_l	ankle_angle_l	subtalar_angle_l	lumbar_extension	lumbar_bending	lumbar_rotation
      2.51000000	      0.45568310	     -2.11941214	    -18.94594075	     -0.53289267	      0.91619967	     -0.06218608	     -2.20633727	      9.34770029	      5.98310187	    -19.15321284	     12.32677792	     -7.46434519	     22.53740060	    -12.78138279	    -11.50416734	    -26.52639064	      2.73426852	      1.35720321	     -9.06679918	     -1.97651806	      4.47402558
      2.52000000	      0.12499455	     -2.18815316	    -19.65878225	     -0.52444310	      0.91411946	     -0.06042858	     -2.43190237	      9.33541053	      6.47480382	    -19.37945561	     12.92312655	     -7.27892466	     22.66162660	    -12.73738647	    -11.72276159	    -22.92423376	      2.72295565	      1.99033223	     -8.76876327	     -1.73890319	      4.77423850
      2.53000000	     -0.18591068	     -2.22448374	    -20.35072982	     -0.51587718	      0.91189832	     -0.05886671	     -2.65105348	      9.27493206	      7.01358409	    -19.64995753	     13.56270412	     -7.06570679	     22.73762406	    -12.58542764	    -11.59248621	    -19.39315038	      2.73674085	      2.95601418	     -8.49215054	     -1.50307498	      5.00339250
      2.54000000	     -0.48021211	     -2.25977467	    -21.03109048	     -0.50718081	      0.90954983	     -0.05740315	     -2.90062817	      9.20374014	      7.63125454	    -19.91168249	     14.19942303	     -6.84082072	     22.76794095	    -12.40730618	    -11.14335834	    -16.00811653	      2.80315268	      4.23125784	     -8.24070323	     -1.24972478	      5.18040452
      2.55000000	     -0.74867639	     -2.27416042	    -21.74986337	     -0.49845053	      0.90708723	     -0.05593743	     -3.13010450	      9.10166381	      8.30610589	    -20.26604205	     14.89522810	     -6.64795882	     22.75939255	    -12.24093693	    -10.54032510	    -12.85926609	      2.82680766	      5.51529071	     -8.02442096	     -1.02058176	      5.36959724
      2.56000000	     -0.97620977	     -2.30106827	    -22.50384061	     -0.48966594	      0.90458206	     -0.05439456	     -3.40057881	      8.99371612	      9.02824983	    -20.64832115	     15.58617208	     -6.47629899	     22.72205394	    -12.14333852	     -9.87847589	    -10.07169777	      2.83604750	      6.82885162	     -7.86848579	     -0.79525969	      5.57343498
      2.57000000	     -1.16144277	     -2.34224927	    -23.29313667	     -0.48085781	      0.90207417	     -0.05270953	     -3.71119257	      8.88177921	      9.76091602	    -21.05914805	     16.23530295	     -6.33203210	     22.69715340	    -12.13185363	     -9.28869471	     -7.77446324	      2.84405175	      8.08232617	     -7.77598377	     -0.58967563	      5.81178173
      2.58000000	     -1.30168838	     -2.42732955	    -24.10273258	     -0.47203656	      0.89962688	     -0.05086870	     -4.09297317	      8.79301282	     10.50433372	    -21.46424215	     16.83127563	     -6.21224676	     22.72896619	    -12.22992424	     -8.79687905	     -6.11511715	      2.89629537	      9.23197973	     -7.76633800	     -0.37603211	      6.04250326
      2.59000000	     -1.39230294	     -2.54254963	    -24.89487400	     -0.46316044	      0.89728788	     -0.04890495	     -4.54659910	      8.70678041	     11.17867903	    -21.85603074	     17.36975094	     -6.12215076	     22.84294219	    -12.39770442	     -8.41639616	     -5.15468064	      3.01486463	     10.19800646	     -7.83467325	     -0.17500082	      6.26312540
      2.60000000	     -1.43008342	     -2.67120073	    -25.67011056	     -0.45423217	      0.89510706	     -0.04681351	     -5.05928548	      8.60837308	     11.80140018	    -22.25346569	     17.83835742	     -6.06534308	     23.03509718	    -12.60575503	     -8.11135428	     -4.89680163	      3.16321341	     10.87038086	     -7.97706822	     -0.01051458	      6.45491909
